<?xml version="1.0" encoding="utf-8"?>
<!-- Generator: Adobe Illustrator 27.8.1, SVG Export Plug-In . SVG Version: 6.00 Build 0)  -->
<svg version="1.1" id="Layer_1" xmlns="http://www.w3.org/2000/svg" xmlns:xlink="http://www.w3.org/1999/xlink" x="0px" y="0px"
	 viewBox="0 0 296.1 300" style="enable-background:new 0 0 296.1 300;" xml:space="preserve">
<style type="text/css">
	.st0{fill:url(#SVGID_1_);}
	.st1{fill:url(#SVGID_00000182509490251686780950000002749310878437329830_);}
	.st2{fill:#FFE500;stroke:#000000;stroke-width:2.1;stroke-miterlimit:3.9;}
	.st3{fill:#DA020E;}
	.st4{fill:#FFE500;}
	.st5{clip-path:url(#SVGID_00000053521303938347548900000006141227402860186793_);}
	.st6{fill:none;stroke:#B54005;stroke-width:10;stroke-miterlimit:3.9;}
	.st7{fill:url(#SVGID_00000099628687046676503810000014334346486875121584_);}
	.st8{fill:url(#SVGID_00000170962870767702595800000006169338816998186635_);}
	.st9{fill:url(#SVGID_00000121258944427808052350000015544369999393642668_);}
	.st10{fill:url(#SVGID_00000058572304626952110240000007524223023860284034_);}
	.st11{fill:url(#SVGID_00000015327710784460756320000014439206929796831369_);}
	.st12{fill:url(#SVGID_00000167392022426781194090000007886898614752330682_);}
	.st13{fill:url(#SVGID_00000105409577397597890110000013473350236523228336_);}
	.st14{fill:url(#SVGID_00000102507898844636553680000010006025966712444090_);}
	.st15{fill:url(#SVGID_00000165225554313768726770000018310032616759300774_);}
	.st16{fill:url(#SVGID_00000008847621427503674230000005790986834772225410_);}
	.st17{fill:url(#SVGID_00000109008068636534035510000007194249333543288208_);}
	.st18{fill:url(#SVGID_00000083051001093484816750000013164035115778533306_);}
	.st19{fill:none;stroke:#000000;stroke-width:2.1;stroke-miterlimit:3.9;}
	.st20{fill:url(#SVGID_00000014592333161578923460000015141971244072454032_);}
	.st21{fill:url(#SVGID_00000104675659934608138830000012758646334307168145_);}
	.st22{fill:url(#SVGID_00000129185604895213787670000016163827628389977495_);}
</style>
<path d="M162.6,285c-1,3.3-5,11.8-14,11.8c-10.2,0-13.8-11-14-11.6l-0.3-1c0,0,9,0.7,13.8,0.7c5,0,13.3-0.6,14.6-1v1L162.6,285z"/>
<path d="M189.6,279.4l2,0.3c-2.4,6.5-7,14-15.8,14c-8.6,0-13-5-14.7-8.4l-1.4-1c0,0,15-0.4,30-5 M108,279.4l-2,0.3
	c2.4,6.5,7,14,16,14c8.5,0,13-5.4,15-8.4l1-1c0,0-14.8-0.4-30-5"/>
<radialGradient id="SVGID_1_" cx="567.8353" cy="1470.717" r="11.7" gradientTransform="matrix(0.85 0 0 0.63 -334.13 -637.9507)" gradientUnits="userSpaceOnUse">
	<stop  offset="0" style="stop-color:#FFE500"/>
	<stop  offset="0.5" style="stop-color:#FFE500"/>
	<stop  offset="1" style="stop-color:#E15007"/>
</radialGradient>
<path class="st0" d="M155.8,285.6c-1.4,2-2.3,2-4,2c-0.8,0-2,0.6-2,2c0,1,0.8,1.7,2.2,1.7c3,0,5.4-4.3,6-6c0,0,1.8,0,2.3-0.2
	c0,0-3.2,9.7-11.6,9.7c-8.3,0-11.7-9.5-11.7-9.5s7,0.5,11,0.5h7.8"/>
<radialGradient id="SVGID_00000167382427115889490200000013142751064850357170_" cx="533.7953" cy="1288.4849" r="12.2" gradientTransform="matrix(0.86 0 0 0.77 -336.16 -705.9553)" gradientUnits="userSpaceOnUse">
	<stop  offset="0" style="stop-color:#FFE500"/>
	<stop  offset="0.5" style="stop-color:#FFE500"/>
	<stop  offset="1" style="stop-color:#E15007"/>
</radialGradient>
<path style="fill:url(#SVGID_00000167382427115889490200000013142751064850357170_);" d="M109,281.4c5.6,1.4,9.5,2.6,18.6,3.7
	c0,0-0.3,1-2.3,1c-0.7,0-0.8-0.3-1-0.3c-0.7,0-1.5,0.5-1.5,1.5c0,0.7,0.7,1.6,2.7,1.6s4.4-1.7,5.6-3.3l2.6,0.4c0,0-4,5.4-11.6,5.4
	C113.7,291.4,110.5,283.8,109,281.4"/>
<path class="st2" d="M148,236.4c29,0,61.4-18,84-43.7c2.5-2.8,6.7-8,16.5-8c10,0,23,9,21.4,25.3c-1.2,12-18.2,38.8-47.4,55.3
	c-29,16.6-56,20.2-74.6,20.2c-18.7,0-45.5-3.6-74.7-20.2C44.3,248.8,27,222,26,210c-1.5-16.4,11.6-25.4,21.4-25.4
	c10,0,14,5.3,16.5,8c22.5,26,54.8,43.8,84,43.8L148,236.4z"/>
<path class="st3" d="M147.7,240.4c-29.3,0-62.7-17.3-87.2-45.3c-2.5-2.8-5.7-6.4-13.3-6.4c-4.4,0-9.4,2.3-12.8,6
	c-2.5,2.7-5.3,7.5-4.6,15c1,10,17,36,45.3,52c23,13,47.4,19.7,72.7,19.7c25.4,0,49.8-6.6,72.7-19.6c28.4-16,44.3-42.2,45.3-52.2
	c0.7-7.4-2.2-12.2-4.6-15c-3.3-3.6-8.3-6-12.7-6c-7.6,0-10.8,3.7-13.3,6.6c-24.5,28-58,45.4-87.3,45.4L147.7,240.4z"/>
<path d="M274,94.4v-6.8c2,1.6,6,1.6,8.3-0.8c1-1,1.6-3,1.6-4.7c-0.2-2-1-4-2.7-5.4c-8.5-8.4-16-16.7-16-16.7c-0.8-1.3-2-2.2-2.7-2.5
	c-1-0.5-4.8-2.2-7.6,2c-2.5,4-2.2,9.5-1.7,11.5l8,10.8c2.7,3.5,10.4,11,12.6,12.6 M103.4,24c10-3.4,19.2-6.2,31.6-7.3l1.8-1
	c-7-5.5-13.7-9.3-20.6-9.3c-4.2,0-13,3-15,18.4l2.2-1V24z M192.6,24c-10-3.4-19.2-6.2-31.6-7.3l-2-1c7-5.5,14-9.3,20.7-9.3
	c4.3,0,13,3,15,18.4l-2-1L192.6,24z"/>
<path d="M136.6,16.2C141.6,6.4,146.3,3,149,3c3,0,6.8,5,9.8,11.6l0.6,1.5h-2.6c-1.7-0.5-6.5-0.5-8.4-0.5c-2,0-6,0-8.5,0.2
	L136.6,16.2L136.6,16.2z"/>
<path class="st4" d="M96.8,235l-7.3,13.3c-2.2,4-4.5,6.5-8.2,4.3c-3.7-2-3-5-0.6-9.2l7.3-13.2l-6-3.3l-7.6,14
	c-4.3,7.6,1,12.4,5.3,14.7c4.5,2.5,11,4.3,15.2-3.3l7.7-14l-6-3.4L96.8,235z M190.8,262.3l-2.4-7.6l7.3-2.4l-1-3l-7.3,2.2l-2-6.4
	l7.4-2.4l-1-3L178,244l7.7,23.4l15-5l-1-3l-8.8,3L190.8,262.3z M206.6,231.9l-8.4,4.7l12.4,21.5l8.3-4.8c8.5-5,9.4-12.5,6-18.6
	c-4-7-11-7.3-18.4-3 M219.1,238.3c3.2,5.5,2.5,9.5-2.3,12.3l-2.4,1.3l-9-15.7l2.4-1.4c5.8-3.5,9-0.5,11.2,3.4 M152,248.2l0.5,3.3
	l7-1l3,21.3l6.3-1l-3-21.2l7-1l-0.6-3.2l-20.2,3V248.2z M146.2,248.5l-6.5-0.4l-1.4,24.7l6.5,0.4L146.2,248.5z M126.5,245.5
	l-4.5,16.8l-8.4-20.3l-5.3-1.4l-6.4,24l5.8,1.4l4.6-17l8.5,20.5l5,1.4l6.5-23.8L126.5,245.5L126.5,245.5z M92.6,89.8v115.8
	l55.4,35.6l55.3-35.6V90c-1.7-1.6-5.3-5-8.2-6.8h-94.4c-2.4,1.7-7.2,5.7-8,6.6L92.6,89.8z"/>
<g>
	<g>
		<defs>
			<path id="SVGID_00000077284050839503188720000004855656294289786522_" d="M92.6,89.8v115.8l55.3,35.6l55.3-35.6V90
				c-1.7-1.6-5.4-5-8.3-6.8h-94.4C98.2,84.9,93.4,88.9,92.6,89.8L92.6,89.8z"/>
		</defs>
		<clipPath id="SVGID_00000122000919740518338210000013027078571584606114_">
			<use xlink:href="#SVGID_00000077284050839503188720000004855656294289786522_"  style="overflow:visible;"/>
		</clipPath>
		<g style="clip-path:url(#SVGID_00000122000919740518338210000013027078571584606114_);">
			<polyline class="st6" points="92.6,42.8 92.6,205.6 147.9,241.2 203.2,205.6 203.2,43 			"/>
		</g>
	</g>
</g>
<linearGradient id="SVGID_00000029749668086985888300000002604921787233229475_" gradientUnits="userSpaceOnUse" x1="476.1977" y1="943.69" x2="476.1977" y2="998.79" gradientTransform="matrix(1 0 0 1 -330.95 -816.9)">
	<stop  offset="0" style="stop-color:#8F0904"/>
	<stop  offset="0.2" style="stop-color:#B40509"/>
	<stop  offset="1" style="stop-color:#DA020E"/>
</linearGradient>
<path style="fill:url(#SVGID_00000029749668086985888300000002604921787233229475_);" d="M170,173v-4.4c0,0-1-1.8-4-1.8
	c-2.8,0-4.4,1-4.4,1.6C161.6,169.6,164.1,172.9,170,173 M147.8,134.7l4.3-7.5l3.4,7.5h5.5c-3.4,3-4.8,8-4.8,11v3.5
	c0,1.5-0.7,4-0.7,4l5.5,4.2c0.3,0.2,0.7,0.4,0.5,1c-0.4,1-3.7,2.6-4,3c-0.8,0.5-1,1-0.8,1.6c0.3,0.7,1,0.8,2,0.4
	c1.4-0.5,4-1.8,6.2-2.8c2-1,5-0.7,5-0.7v-4.3h-8.2v-13.4l-1.5-2.4l3.6-6.6l3.6,6.6l-1.4,2.3v7h4.2v-7L169,140l3.6-6.5l3.7,6.5
	l-1.5,2.3v7h4.3v-7l-1.4-2.3l3.7-6.5l3.6,6.5l-1.5,2.3v13.4h-8.3v6.2c2,1.6,3.7,5.7,3.7,8c0,2.5-1.7,3.5-1.7,3.5
	c0.5,2,0.4,2.7,0.2,4.4s-2.4,4.4-2.4,4.4v32c0,2.2-5,2-5,0V183c-2.8-3.2-10.5-5.6-10.5-5.6c-3,2.8-4.6,7.8-4.6,7.8c1,0.8,3,0,3.7-1
	c0.8-0.7,2.2-1,3-0.4c1,0.5,1,0.7,0.8,2c-0.3,1.3-0.8,3.3-0.8,4.8s1.6,1.2,3,1.3c2.4,0.3,2.8,3,2.6,4.7c-0.2,1.6-1,5-1,7
	s0.2,4.2,0.4,5.4s0.6,2.5,0.5,4c0,2-1.3,2.2-2.6,1l-18.8-20c-1,3.8,3.7,10.3,5.3,12.3s1.5,3.5,0.2,5c-1.4,1.2-4,2-4.5,3.2
	c-0.6,1.2,1.2,5,5,9.8c3.6,4.7-4.3,7.8-9,8.8s-4.7-2.2-4.4-4s0.3-3,0.2-4.4c0-1.6-1.6-3.8-3.6-6.4s-2-5-1.2-11
	c0.8-6.2,0.6-10,0.6-10h-5c-3.2-0.2-5.7-2-6-9.3c0-7.4-0.3-25-0.8-26.8s-2.4-2-3.3-2.4c-0.8-0.2-1-1.4,0-2c2.2-1,4.8-3.6,3.8-5.3
	s-4.7-1.3-7.3,0c-2.6,1.2-5.3,4-6,4.7s-1.3,0.7-1.2,0c0-1-0.5-5-0.8-6.3c-0.4-1.5-1.6-4.2-2-5c-0.5-0.6,0-0.8,0.6-0.6
	c0.7,0.3,2.3,1,3.7,1.4c1.5,0.4,3-0.3,3.6-1.7l2.7-5.6c0.7-1.4,1.8-1,2.8-1c1,0.3,1.8,1,2.6,1.2c1,0.4,1.6,0.3,2,0
	c0-0.5,0.5-0.7,1-1.7s1-0.7,1.2-0.2c2.5,15,9,15.7,9,15.7c-1,2.5-3.3,6.5-3.8,7.5c-0.6,1-0.8,2.3-1,3.3c0,1,0.4,11,1,14.6
	c0.8,3.6,3,2.2,3.7,1c0.7-1,3-5.7,3-5.7s0.4-1.2,0.4-2.3c0-1-1.7-3.3-2-4c-0.5-0.8-2-2-2-5.6c0-3.5,3-6,4.2-7c1-0.8,1-2,1-2.8
	c-0.5-2.7-3.4-8.4-4.8-10.6c-1.4-2-4-6.3-4-6.3h5.6l3.6-7.5l4,7.6h4L147.8,134.7z M146.8,157.7c2-3,2.7-6.3,2.7-6.3H144
	C144,151.4,145,154.7,146.8,157.7 M141.2,142.2c0.3,1.6,1.4,2.2,2.3,1.8c1-0.4,0.7-1.7,0-2.7c-0.5-1-1.8-2-2.2-2
	C140.9,139.5,141.1,141.3,141.2,142.2 M151.8,139.3c-0.3,0-1.7,1-2.4,2c-0.6,1-0.8,2.3,0,2.8c1,0.5,2,0,2.4-1.7
	C152,141.4,152.3,139.6,151.8,139.3"/>
<path class="st3" d="M97,118.7v7h102v-7h-7.4v1h-87v-1H97z M97,87.4h102V115H97V87.4L97,87.4z"/>
<path class="st4" d="M114.5,107l7.8,2l4.3-11.8v-3L114.5,107z M179,114v-3.6h-7.4v-3h6V93.8H172l-1.8-3.8l-2,3.7h-5.5V107h6v3h-14.4
	v-3h6V94h-5.6l-1.7-4l-2,3.7h-5.6V107h6v3h-14.7v-3h6V94H137l-1.7-3.8l-2,3.7H128v13.3h6v3h-11.6l-11.7-2.6l2.3,6.3L179,114L179,114
	z"/>
<radialGradient id="SVGID_00000060727255616507408690000002574253477326224001_" cx="571.4" cy="1006.3618" r="14.7" gradientTransform="matrix(0.8 0 0 0.78 -347.15 -767.2942)" gradientUnits="userSpaceOnUse">
	<stop  offset="0" style="stop-color:#FFE500"/>
	<stop  offset="0.5" style="stop-color:#FFE500"/>
	<stop  offset="1" style="stop-color:#E15007"/>
</radialGradient>
<path style="fill:url(#SVGID_00000060727255616507408690000002574253477326224001_);" d="M104,22.8c9.8-3.3,17.2-5.8,29.4-7
	c-5.6-3.8-10.6-7-16.3-7c-3,0-5.5,1-6,3.2c-0.6,2,1,2.7,1.4,2.6c0.6-0.2,1-0.3,0.8-0.8c0-0.6,0.3-2,2.2-2c2,0,2.7,1.8,2.7,3
	c0,1.3-2,3.3-5.5,3.3s-5.3-2.2-5.2-4.4C105.8,16.2,104.8,18.7,104,22.8"/>
<path d="M35.3,81.8l8-10.8c0.4-2,0.8-7.5-1.8-11.4c-2.8-4.3-6.4-2.6-7.5-2c-0.7,0.2-2,1-2.7,2.4c0,0-7.7,8.4-16.2,16.8
	c-1,1.2-2.4,3.3-2.5,5.3c0,2,0.6,3.7,1.7,4.8c2.3,2.5,6.3,2.4,8.4,0.8v6.8c2.3-1.7,10-9,12.7-12.6"/>
<path class="st2" d="M148,66c45.6,0,71.5,42.8,77,50.3c10.2,13.4,22.5,24.3,36.8,20.7c21-5.3,19.8-36.4,19.8-36.4
	c-5-3.6-13.6-8.2-29.3-30.5C237,48.4,202,16,148,16S59,48.3,43.7,70C28,92.5,19.4,97,14.4,100.7c0,0-1.2,31,19.8,36.4
	c14.2,3.6,26.5-7.3,36.6-20.7C76.5,108.8,102.4,66,148,66z"/>
<path class="st3" d="M148,62c44,0,70,37.2,79.5,50.7c12.5,16.7,23,23,33.3,20.4c14.7-3.7,16.5-24,16.7-30v-0.3h-0.2
	c-5-3.7-13.8-9.6-28.4-30.2C240.2,60.2,207.3,20,148,20S55.7,60.2,47,72.5c-14.4,20.4-23.5,26.7-28.3,30l-0.2,0.2v0.2
	c0.2,6,2,26.4,16.7,30c10.2,2.7,20.8-3.6,33.3-20.3C78,99.2,104,62,148,62"/>
<path class="st4" d="M124,30.8c-8,1.7-13.3,7.7-11.5,15.7c1,4.4,5,12.4,17,9.8c3.6-0.7,5.4-2,7.2-3.7l-2.3-2.6c-0.8,1-2,2.3-5,3
	c-5.8,1-9.4-3.7-10.2-7.8c-1.3-6.2,2.2-10.4,6.3-11.3c3-0.7,4.6,0,5.7,0.5l0.8-3.2C130,30.5,127.7,29.9,124,30.8 M191.5,66.2
	c4.6,2.8,9.7,2.3,12-1.6c1.7-2.7,1.8-5-0.3-9c-0.5-1.2-1.2-2-1.7-3c-1-1.8-1.7-3.2-1-4.5c1-1.4,3-1.5,4.7-0.4c2,1.2,2.7,3,3,4.3l3-1
	c-0.8-2.6-2.2-4.8-5.3-6.6c-5.4-3.2-9.7-2.4-11.5,0.6s-1.3,5.5,0,8c0,0,1,1.5,1.4,2.5c1,2,2.5,4.6,1.6,6c-1.2,2-3.3,2.5-5.3,1.3
	c-2.5-1.6-3-3.5-3.6-5.3l-3.3,1.4c0.7,2.4,2.4,5,6,7.3 M156.2,29.4l-0.3,10h-9.5V29.3H140l-0.3,24.6h6.5l0.2-11.3l9.7,0.2V54h6.4
	l0.4-24.6h-6.5H156.2z M249.2,107.9c0,0,3.7,2,8-1.8c3.4-3.2,2.2-7.5-1.4-11.5l-6.7-7.5l-18.4,16.5l4.2,4.8l7.3-6.5l2.2,2.4
	l-4.7,10.4l5.6,4.4l3.7-11.2L249.2,107.9z M252.4,95.7c1.7,2,1.8,4.2-0.2,6c-2,1.7-4.5,1.3-6.4-0.7l-1-1.2l6.2-5.6l1.4,1.6V95.7z
	 M224,89.5l6-5l5,5.8l2.6-2.2l-5-5.8l5.2-4.3l5,6l2.6-2.2l-9.2-11l-19,15.8l10.3,12.2l2.5-2L224,89.5L224,89.5z M217,52.5l-2.3,2.3
	l5,4.7l-14.2,16l4.8,4.3l14.4-16l5,4.6L232,66L217,52.5L217,52.5z M174.6,53.9l2.6-7.6l7.3,2.5l1-3.2l-7.3-2.5l2.3-6.5l7.5,2.6l1-3
	l-13.6-4.8l-8,23.4l15,5l1-3L174.6,53.9L174.6,53.9z M96.3,41.7l9.3,14.8L85,49l-4.7,2.8l13,21l5-3l-9.2-15l21,7.7l4.5-3l-13-21
	l-5.2,3.3L96.3,41.7z M67.3,64.1l-4,4.5L75,92.3l3-3l-3.3-6.4l5.7-6.2l6.5,2.7l4.7-5L67.3,64.1L67.3,64.1z M77.3,75.3L73.2,80
	l-4.3-8.5l8.7,4L77.3,75.3z M53.6,79L49,84.7l8.5,17.8l-18.5-6l-4,4.6l19,16l3-3.5l-13.5-11.2l18,5.8l1.8-2l-8.5-17.3L68.2,100
	l4.2-5l-19-16H53.6z"/>
<radialGradient id="SVGID_00000101066566755296854090000014928978278573017530_" cx="-275.1034" cy="651.1708" r="8.5" gradientTransform="matrix(1.1 -1.9 1.68 0.96 -756.4052 -1067.5743)" gradientUnits="userSpaceOnUse">
	<stop  offset="0" style="stop-color:#FFE500"/>
	<stop  offset="0.5" style="stop-color:#FFE500"/>
	<stop  offset="1" style="stop-color:#E15007"/>
</radialGradient>
<path style="fill:url(#SVGID_00000101066566755296854090000014928978278573017530_);" d="M24.5,91.7v-5.4c9.3-8.6,13.7-17,13.7-17
	s-3.5-1.4-5-3.4c-0.8-1.2-1-2.6-1-3.6c0.4-2,1.8-2.8,2.3-3c1-0.5,3-1.5,5.3,1.5c2.3,3.2,1.7,9.4,1.4,11c0,0-4.3,7.4-16.7,19.7"/>
<linearGradient id="SVGID_00000158021927785190054000000000216268235059139736_" gradientUnits="userSpaceOnUse" x1="353.2444" y1="890.7891" x2="357.8445" y2="895.7891" gradientTransform="matrix(1 0 0 1 -330.95 -816.9)">
	<stop  offset="0" style="stop-color:#FFE500"/>
	<stop  offset="0.5" style="stop-color:#FFE500"/>
	<stop  offset="1" style="stop-color:#E15007"/>
</linearGradient>
<path style="fill:url(#SVGID_00000158021927785190054000000000216268235059139736_);" d="M34.8,70.2c-1.3,2-4.4,7.4-12.4,15
	c-1.4,1.2-4.7,2.2-6.6,0c-0.7-0.7-1-1.8-1-3.2c0-1.5,1-3.3,2-4c1.5-1.5,8.4-8.4,13.3-14c0.2,1,1,2.8,1,2.8
	C31.8,67.8,32.6,69.1,34.8,70.2"/>
<linearGradient id="SVGID_00000173156372895614169540000002764630425236861864_" gradientUnits="userSpaceOnUse" x1="379.6777" y1="1000.7196" x2="411.0777" y2="1036.8196" gradientTransform="matrix(1 0 0 1 -330.95 -816.9)">
	<stop  offset="0" style="stop-color:#740703"/>
	<stop  offset="1" style="stop-color:#DA020E;stop-opacity:0"/>
</linearGradient>
<path style="fill:url(#SVGID_00000173156372895614169540000002764630425236861864_);" d="M147.8,240.4c-29.3,0-62.7-17.3-87.3-45.3
	c-2.5-2.8-5.7-6.4-13.2-6.4c-4.5,0-9.5,2.3-12.8,6c-2.5,2.7-5.3,7.5-4.7,15c1,10,17,36,45.3,52c23,13,47.4,19.7,72.7,19.7"/>
<linearGradient id="SVGID_00000150812038250499511580000003693292799398949048_" gradientUnits="userSpaceOnUse" x1="-620.3451" y1="1000.7394" x2="-588.9451" y2="1036.8395" gradientTransform="matrix(-1 0 0 1 -373.59 -816.9)">
	<stop  offset="0" style="stop-color:#740703"/>
	<stop  offset="1" style="stop-color:#DA020E;stop-opacity:0"/>
</linearGradient>
<path style="fill:url(#SVGID_00000150812038250499511580000003693292799398949048_);" d="M147.8,240.4c29.3,0,62.7-17.3,87.2-45.3
	c2.4-2.8,5.6-6.4,13.2-6.4c4.4,0,9.4,2.3,12.8,6c2.5,2.7,5.3,7.5,4.6,15c-1,10-17,36-45.3,52c-23,13-47.3,19.7-72.6,19.7"/>
<linearGradient id="SVGID_00000051385709515251573210000001872699037911895207_" gradientUnits="userSpaceOnUse" x1="602.9901" y1="942.3632" x2="585.8901" y2="926.3632" gradientTransform="matrix(1 0 0 1 -330.95 -816.9)">
	<stop  offset="0" style="stop-color:#740703"/>
	<stop  offset="1" style="stop-color:#DA020E;stop-opacity:0"/>
</linearGradient>
<path style="fill:url(#SVGID_00000051385709515251573210000001872699037911895207_);" d="M227.5,112.7c12.5,16.7,23,23,33.2,20.4
	c14.7-3.6,16.6-24,16.7-30v-0.4c-5.3-3.6-14-9.5-28.5-30"/>
<linearGradient id="SVGID_00000047744479765600707320000003620121663632401578_" gradientUnits="userSpaceOnUse" x1="-398.5138" y1="944.0269" x2="-416.6137" y2="925.0269" gradientTransform="matrix(-1 0 0 1 -373.06 -816.9)">
	<stop  offset="0" style="stop-color:#740703"/>
	<stop  offset="1" style="stop-color:#DA020E;stop-opacity:0"/>
</linearGradient>
<path style="fill:url(#SVGID_00000047744479765600707320000003620121663632401578_);" d="M68.4,112.7c-12.5,16.7-23,23-33.2,20.4
	c-14.7-3.6-16.6-24-16.8-30v-0.2l0.2-0.2c5.2-3.6,14-9.5,28.4-30"/>
<radialGradient id="SVGID_00000168105005692162494030000016924113757580935068_" cx="-678.6" cy="1006.3618" r="14.7" gradientTransform="matrix(-0.8 0 0 0.78 -356.86 -767.2942)" gradientUnits="userSpaceOnUse">
	<stop  offset="0" style="stop-color:#FFE500"/>
	<stop  offset="0.5" style="stop-color:#FFE500"/>
	<stop  offset="1" style="stop-color:#E15007"/>
</radialGradient>
<path style="fill:url(#SVGID_00000168105005692162494030000016924113757580935068_);" d="M192,22.8c-10-3.3-17.3-5.8-29.5-7
	c5.6-3.8,10.6-7,16.3-7c3,0,5.6,1,6.2,3.2c0.5,2-1,2.7-1.5,2.6c-0.6-0.2-1-0.3-0.8-0.8c0-0.6-0.3-2-2.2-2c-2,0-2.7,1.8-2.7,3
	c0,1.3,2,3.3,5.6,3.3c3.5,0,5.3-2.2,5.2-4.4C190.3,16.2,191.3,18.7,192,22.8"/>
<radialGradient id="SVGID_00000004534922690753422200000003339273404455601558_" cx="433.4454" cy="798.8663" r="8.3" gradientTransform="matrix(1.1 0 0 1.05 -326.87 -827.2945)" gradientUnits="userSpaceOnUse">
	<stop  offset="0" style="stop-color:#FFE500"/>
	<stop  offset="0.5" style="stop-color:#FFE500"/>
	<stop  offset="1" style="stop-color:#E15007"/>
</radialGradient>
<path style="fill:url(#SVGID_00000004534922690753422200000003339273404455601558_);" d="M148.4,10c-0.3,1.8-2.5,3.6-4.7,3.6
	s-2.8-0.4-2.8-0.4c-0.5,0.6-0.8,1-1,1.5l8.4-0.2l8,0.4c-1.8-4.3-5.2-10-7.6-10h-0.3c-0.5,0-2.5,1.6-3.5,3c-1.3,2,3.4,2,3.4,2
	L148.4,10z"/>
<radialGradient id="SVGID_00000061443493547084167630000005331004908112410517_" cx="-501.0921" cy="203.9015" r="8.5" gradientTransform="matrix(-1.1 -1.9 -1.68 0.96 52.3952 -1067.5743)" gradientUnits="userSpaceOnUse">
	<stop  offset="0" style="stop-color:#FFE500"/>
	<stop  offset="0.5" style="stop-color:#FFE500"/>
	<stop  offset="1" style="stop-color:#E15007"/>
</radialGradient>
<path style="fill:url(#SVGID_00000061443493547084167630000005331004908112410517_);" d="M271.5,91.7v-5.4c-9.3-8.6-13.7-17-13.7-17
	s3.5-1.4,5-3.4c0.7-1.2,1-2.6,1-3.6c-0.4-2-1.8-2.8-2.3-3c-1-0.5-3-1.5-5.3,1.5c-2.3,3.2-1.6,9.4-1.3,11c0,0,4.3,7.4,16.7,19.7"/>
<linearGradient id="SVGID_00000077289887531071877070000013951148595023759773_" gradientUnits="userSpaceOnUse" x1="-646.7395" y1="890.7744" x2="-642.1395" y2="895.7744" gradientTransform="matrix(-1 0 0 1 -373.06 -816.9)">
	<stop  offset="0" style="stop-color:#FFE500"/>
	<stop  offset="0.5" style="stop-color:#FFE500"/>
	<stop  offset="1" style="stop-color:#E15007"/>
</linearGradient>
<path style="fill:url(#SVGID_00000077289887531071877070000013951148595023759773_);" d="M261,70.2c1.4,2,4.5,7.4,12.5,15
	c1.4,1.2,4.7,2.2,6.6,0c0.8-0.7,1.2-1.8,1.2-3.2c0-1.5-1-3.3-2-4c-1.6-1.5-8.5-8.4-13.4-14c0,1-1,2.8-1,2.8c-0.6,1-1.5,2.3-3.7,3.4"
	/>
<path class="st19" d="M92.6,89.8v115.8l55.4,35.6l55.3-35.6V90c-1.7-1.6-5.3-5-8.2-6.8h-94.4c-2.4,1.7-7.2,5.7-8,6.6L92.6,89.8z"/>
<radialGradient id="SVGID_00000136382970874497864900000001635758040126985099_" cx="-628.9953" cy="1288.4849" r="12.2" gradientTransform="matrix(-0.86 0 0 0.77 -366.09 -705.9553)" gradientUnits="userSpaceOnUse">
	<stop  offset="0" style="stop-color:#FFE500"/>
	<stop  offset="0.5" style="stop-color:#FFE500"/>
	<stop  offset="1" style="stop-color:#E15007"/>
</radialGradient>
<path style="fill:url(#SVGID_00000136382970874497864900000001635758040126985099_);" d="M188.5,281.4c-5.4,1.4-9.3,2.6-18.5,3.7
	c0,0,0.3,1,2.3,1c0.8,0,1-0.3,1-0.3c0.7,0,1.6,0.5,1.5,1.5c0,0.7-0.7,1.6-2.7,1.6s-4.3-1.7-5.5-3.3c0,0-1.2,0.3-2.5,0.4
	c0,0,4,5.4,11.6,5.4c8.5,0,11.6-7.6,13-10"/>
<path class="st2" d="M4.2,162.5c0-14,11.4-25.3,25.4-25.3s25.3,11.4,25.3,25.3c0,14-11.5,25.3-25.4,25.3c-14,0-25.4-11.3-25.4-25.3
	H4.2z"/>
<radialGradient id="SVGID_00000005256528058158915380000005830871549457911472_" cx="341.2692" cy="966.3332" r="18.8" gradientTransform="matrix(1.04 0 0 1.02 -325.6 -825.6878)" gradientUnits="userSpaceOnUse">
	<stop  offset="0" style="stop-color:#DA030E;stop-opacity:0"/>
	<stop  offset="0.9" style="stop-color:#DA020E;stop-opacity:0"/>
	<stop  offset="1" style="stop-color:#DA020E"/>
</radialGradient>
<path style="fill:url(#SVGID_00000005256528058158915380000005830871549457911472_);" d="M10,161.6c0-10.6,8.7-19.2,19.5-19.2
	S49,151,49,161.6s-8.7,19.2-19.5,19.2S10,172.2,10,161.6z"/>
<path class="st3" d="M35,180c-1.2,0.3-1.7-0.5-2.2-1c-2-2.3-2.4-8.4-2.4-9.2s0.3-1.6,0.8-1.7c4.8,0,8.2-1.3,11.3-4
	c3-2.5,4.4-5.4,4.7-6c0.3-0.5,1-0.4,1,0.4c0.2,0.7,0.4,2,0.4,3.2C48.6,170.4,42.8,177.5,35,180 M29.9,180.7h-0.5
	c-3.5,0-7.3-1.3-9.6-2.6c-2.5-1.2-3.4-7.3-3.4-10.3c0-10,4-16,4.8-17c0.6-1.3,2-1.5,3.2-1.2l2.8,1c0.6,0,2,0.4,3,0.6
	c1,0.3,2,0.6,1.4,2.5c-0.6,2-2.8,6.4-3,11.8c-0.3,5,0.4,9.8,1.5,12.8c0.7,2,0.7,2.8-0.4,2.7 M15.4,158c-1-0.6-2-3-2.5-3.7
	c-0.2-0.5-0.2-2,0-2.6c1.7-2.7,4-5.2,6.8-6.6c0.3,0,0.8,0,0.8,0.8c0,0.4,0.3,1,0.3,1.6c0,0.4,0,1.4-0.5,2c-0.6,0.8-3.2,5.3-3.8,8
	C16.5,157.9,16.2,158.5,15.4,158 M14.7,174c-2.7-2.7-4.6-7.4-4.6-12.4c0-2,0.3-3.8,0.8-5.6c0,0,0.5-0.7,1,0l1,1.6
	c0.4,0.6,2.4,2.2,2.3,3.5c-0.8,4.7,0,11,0,12c0.3,1,0,1.5-0.6,1 M22.9,143.6c2-0.6,4-1,6.2-1c3.3,0,6.5,0.6,9,2.3c0.8,0.4,1,1,1,1.7
	c0,2.5-4,3.4-6.5,3.4c-2.6,0-5.8-1.2-8-2c-2.4-0.6-2.8-2-2.8-2.5c0-0.6,0.4-1.8,1-2 M40.6,146.3l1.3,1c1.8,1.7,3.4,3.6,4.4,6
	c1.2,2.7-2.5,7-3.6,8c-4.8,4.7-8,4.6-9.7,5c-1.7,0-2.8-1-2.8-2.3c0-3.8,2.8-10.4,3.6-11.7c0.6-0.8,1.5-1.3,1.5-1.3
	c1.8-0.5,3.6-1.3,4.5-2.3c1-1,1-2.4,1-2.4 M29.5,141.3c-11.8,0-21.3,9.5-21.3,21.2c0,11.8,9.5,21.3,21.3,21.3
	c11.7,0,21.3-9.5,21.3-21.3c0-11.7-9.6-21.3-21.3-21.3"/>
<path class="st2" d="M241.6,162.5c0-14,11.3-25.3,25.3-25.3c14,0,25.2,11.3,25.2,25.3s-11.3,25.3-25.3,25.3s-25.4-11.3-25.4-25.3
	H241.6z"/>
<path class="st3" d="M281.8,174c-0.6,0.4-1,0-0.7-1s1-7.3,0.2-12c0-1.3,2-2.8,2.3-3.5l1-1.6c0.5-0.8,1,0,1,0
	c0.5,1.7,0.8,3.6,0.8,5.5c0,5-2,9.7-4.5,12.4 M280,157c-0.6-2.5-3.2-7-3.8-7.8c-0.6-0.7-0.4-1.6-0.4-2l0.3-1.7c0-0.8,0.6-0.8,1-0.6
	c2.8,1.4,5,4,6.6,6.7c0.3,0.6,0.3,2,0,2.5c-0.3,0.7-1.4,3-2.4,3.6s-1,0-1.2-0.6 M276.9,177.9c-2.2,1.3-6,2.7-9.6,2.7h-0.4
	c-1,0-1-0.8-0.4-2.7c1-3,1.8-7.8,1.5-12.7c-0.3-5.5-2.5-10-3.2-12c-0.6-1.8,0.5-2,1.5-2.2c1,0,2.4-0.4,3-0.7l2.8-0.8
	c1.2-0.3,2.7-0.2,3.3,1c0.7,1.2,4.8,7,4.8,17c0,3.2-0.8,9.2-3.2,10.5 M262,180c-8-2.7-13.7-9.8-13.7-18.5c0-1.3,0.3-2.4,0.4-3
	c0.2-1,0.8-1,1-0.5c0.3,0.6,1.7,3.5,4.8,6c3,2.6,6.5,4,11.3,4c0.6,0,0.8,1,0.8,1.8s-0.5,6.8-2.4,9c-0.6,0.6-1,1.4-2.2,1 M250,153.2
	c1-2.2,2.6-4,4.4-5.7l1.3-1c0,0,0,1.3,1,2.3c1,1,2.6,1.8,4.5,2.3c0,0,0.8,0.4,1.3,1.3c1,1.2,3.6,7.8,3.7,11.6c0,1.3-1,2.4-2.8,2
	c-1.8,0-5,0-9.8-4.7C252.6,160.3,248.8,156,250,153.2 M258,144.8c2.8-1.7,6-2.3,9.2-2.3c2.2,0,4.2,0.4,6.2,1c0.7,0.3,1.2,1.4,1.2,2
	s-0.5,2-2.8,2.6c-2.3,0.7-5.5,1.8-8,1.8c-2.7,0-6.6-1-6.6-3.4c0-0.7,0.2-1.3,1-1.7 M267,141.3c-11.8,0-21.3,9.5-21.3,21.2
	c0,11.8,9.5,21.3,21.3,21.3c11.7,0,21.3-9.5,21.3-21.3C288.3,150.8,278.7,141.3,267,141.3"/>
<radialGradient id="SVGID_00000006679856112511827940000001248503773009778309_" cx="341.2692" cy="966.3332" r="18.8" gradientTransform="matrix(1.04 0 0 1.02 -87.95 -825.7778)" gradientUnits="userSpaceOnUse">
	<stop  offset="0" style="stop-color:#DA030E;stop-opacity:0"/>
	<stop  offset="0.9" style="stop-color:#DA020E;stop-opacity:0"/>
	<stop  offset="1" style="stop-color:#DA020E"/>
</radialGradient>
<path style="fill:url(#SVGID_00000006679856112511827940000001248503773009778309_);" d="M247.6,161.5c0-10.6,8.8-19.2,19.6-19.2
	c10.7,0,19.5,8.6,19.5,19.2s-8.8,19.2-19.5,19.2C256.4,180.7,247.6,172.1,247.6,161.5z"/>
</svg>
