<?xml version="1.0" encoding="utf-8"?>
<!-- Generator: Adobe Illustrator 27.8.1, SVG Export Plug-In . SVG Version: 6.00 Build 0)  -->
<svg version="1.1"
	 id="svg2" xmlns:inkscape="http://www.inkscape.org/namespaces/inkscape" xmlns:sodipodi="http://sodipodi.sourceforge.net/DTD/sodipodi-0.dtd" xmlns:svg="http://www.w3.org/2000/svg" xmlns:rdf="http://www.w3.org/1999/02/22-rdf-syntax-ns#" xmlns:cc="http://creativecommons.org/ns#" xmlns:dc="http://purl.org/dc/elements/1.1/" sodipodi:docname="New Premier League Logo 2016-17.svg"
	 xmlns="http://www.w3.org/2000/svg" xmlns:xlink="http://www.w3.org/1999/xlink" x="0px" y="0px" viewBox="0 0 500 210.6"
	 style="enable-background:new 0 0 500 210.6;" xml:space="preserve">
<style type="text/css">
	.st0{fill-rule:evenodd;clip-rule:evenodd;fill:#FFFFFF;}
	.st1{fill:#FFFFFF;}
</style>
<sodipodi:namedview  bordercolor="#666666" borderopacity="1" fit-margin-bottom="0" fit-margin-left="0" fit-margin-right="0" fit-margin-top="0" gridtolerance="10" guidetolerance="10" id="namedview4" inkscape:current-layer="svg2" inkscape:cx="250" inkscape:cy="105.29478" inkscape:pageopacity="0" inkscape:pageshadow="2" inkscape:window-height="838" inkscape:window-maximized="1" inkscape:window-width="1600" inkscape:window-x="-8" inkscape:window-y="-8" inkscape:zoom="2.26" objecttolerance="10" pagecolor="#ffffff" showgrid="false">
	</sodipodi:namedview>
<g id="g4199" transform="matrix(0.43313146,0,0,0.43313146,-183.17823,-116.6152)">
	<path id="path4138" inkscape:connector-curvature="0" sodipodi:nodetypes="cccccccccccc" class="st0" d="M524.9,362
		c54.9-30.3,111.2-34.3,163.1-20.1c2.2-17.7,3.5-33.2,13.3-54.5c-13,9.5-21.4,20.2-31,31.8l-3.2-49.5L625.5,316L597,269.5l-17.5,52
		l-51-36l8.6,50c-11.7-9.7-24.7-19.4-37.8-24.8C509.3,324,519.1,342.3,524.9,362L524.9,362z"/>
	
		<path id="path4142" inkscape:connector-curvature="0" sodipodi:nodetypes="cccccccccccccccccccccsccccccccccccccsccccccccccccccccccccccccccccccccc" class="st0" d="
		M737.2,383c-14.5-12.1-29.1-22.6-61.2-30.5c2.9,6.3,5.3,14.4,5.3,22.8c-8.3-8.8-18.3-19.8-30.6-26.2c-40.5-5.3-82.1,4.9-114.8,21.3
		c13.8,1.6,24.7,12.4,28.4,24.3c-39.1-27.2-61.5,12-38.9,51.2c-24.3-11.6-25.4-39.8-18-58.4c-18.2,13.9-46.1,40.6-63.5,76.8
		l22.3,3.1c-27,31.7-40.5,77.4-43.2,104.2l36.3-11.8c-11.5,41.6-2.3,106.4,12.4,130c22.7-17.8,40.8-40.1,59.6-68.4
		c11.9,37.6,9.8,76.8,0.5,116.7c52.9,30,118.8,17.8,162-14.7c1.8,7.7,3.1,11.3,6.7,28.1c52.4-36.3,70.2-80.7,75.3-123.7l17,18.8
		c22.8-73.7,9.2-133.6-31.3-191.5l-1.7,13.5c-4.7-5.9-12.4-13.1-16-17.6c-0.6-0.7-0.4-1.1-0.8-1.7c1.9-1.2,5.5-2.8,6.4-5.4
		c-0.4-3.5-4.5-12.6-7.5-14.3c-7.5,0.7-13.5,7.3-13.6,9.7c-3.9-3.7-7.6-7.8-19-12c5.1,5.2,10,13.1,13.6,20.1
		c7.5,5.5,20,16,29.3,25.6l-1.8,1.8c-10.2-8-37.7-7.3-52.8,0.3c-7.3-8.8-15.9-18.6-27.8-29.4c-2.9-5-3.2-13.8,6.1-21.5
		c-10.2,0.9-14.4,5.3-19.3,9.4c-7.1-5.4-16.5-11-31.6-15.3c-11.9,2.4-26.2,10-31.7,16.7c13.8,7.4,18.1,9.6,26.5,10.2
		c12.3,0.9,23.1-1.9,31,3.1c9.8,8.7,28.1,25,30.7,32.4c-15.8-9.1-39.6-4.3-65.9-5.7c-24.9-3-38.7-21.4-38.9-36.3l-17.7-2.8
		c10-13.7,22.6-19.8,31.9-23l-9.7-8.1c15.6-13.4,39.8-24.1,64.5-26.3c17.1,8.5,31.7,17.7,41.8,26c4.5-7.6,5.2-15.8,5.8-21.2
		c19.5,9,41.3,24.4,57.2,40.6C744.2,412.3,739.4,398.9,737.2,383L737.2,383z M661.1,565.4c-7.5-14.3-14.8-30.6-23.4-44.2
		c16.6-11.9,32.3-24.2,59.2-31.1c5.7,4.7,14.1,10.4,26,14.7l0,28.4C706,544.7,689.1,563.6,661.1,565.4L661.1,565.4z M717.4,560.2
		l20.5-0.1c3.5,3.3,10.7,14.3,11.2,23c-1.6,12.2-11.1,34.7-27.8,43.3c0.5-10.4-0.7-23.9-2.8-31.4c-9.5,10.7-25,15.5-33,17.3
		c-3.3-8.8-8.8-18.6-14.1-26.6C685.9,582.7,703.9,572.2,717.4,560.2L717.4,560.2z M757.5,491.2c13.5,28.6,10.6,56,1.1,70.1
		c-4.6-10.6-13.5-21.1-21-27.8l0.3-27.8C746.4,501.1,752.3,496.3,757.5,491.2L757.5,491.2z"/>
	<path id="path4144" inkscape:connector-curvature="0" sodipodi:nodetypes="ccccccscccccccc" class="st1" d="M900.3,460.5V514h-30.7
		V351.5H911c27.3,0.3,36.3,3.6,48.1,11.5c11.9,7.8,20.3,25,20.2,41.7c0,37.2-23,56.1-66,55.8H900.3z M900.3,431.5h15.5
		c17.2,0.1,31.5-6.3,31.6-25.9c-0.2-12-7.1-23.4-28.4-24.6h-18.7V431.5z"/>
	<path id="path4146" inkscape:connector-curvature="0" sodipodi:nodetypes="ccccccccc" class="st1" d="M1053.9,434.9
		c-18.7-5.2-34.1,4.4-35.4,22.4V514H990V407.6h25l3.3,16.2c7.7-14.2,17.7-19.7,35.6-16.2V434.9z"/>
	<path id="path4148" inkscape:connector-curvature="0" sodipodi:nodetypes="ccccccccccccsc" class="st1" d="M1165.1,469.7h-78.9
		c0,11.2,11.9,22.5,27,22.4c17-0.6,23.5-7,29.5-12.9l17,17.8c-6.7,6.4-19.5,18.4-44,20.1c-36.7-0.4-58.8-24.6-59.2-55.2
		c0.9-33.9,25.4-56.9,56.8-57.3c20.1,0.1,39.5,12.2,47.6,31.2C1165.5,446.5,1166.5,459.6,1165.1,469.7L1165.1,469.7z M1086.2,449.9
		h51.6c-2.3-10.3-11.9-20.9-25.8-20.6C1097.9,429.5,1087.7,439.4,1086.2,449.9z"/>
	<path id="path4150" inkscape:connector-curvature="0" sodipodi:nodetypes="ccsccccsccccccsccccc" class="st1" d="M1305.9,513.9v-63
		c-0.8-13.9-10.5-19.9-18.1-19.3c-9.7,0.7-17.2,8.1-17.8,19.9v62.5h-28v-67.4c-1.7-9.9-10.6-15.4-18.1-14.7
		c-8.8,0.8-16.5,5.9-17.3,16v66.1H1178V407.2h25.8l2.8,13.6c7.2-11.1,14.7-16.4,26.7-16.5c16.9-0.1,24.3,8.3,31.2,17.3
		c8.8-12.4,16.6-16.6,33.3-17.3c24.4,1.2,37,20.8,36.4,42.5v67.1H1305.9z"/>
	<path id="path4152" inkscape:connector-curvature="0" sodipodi:nodetypes="ccccc" class="st1" d="M1349.7,407.5h29.4v106.4h-29.4
		V407.5z"/>
	<path id="path4153" inkscape:connector-curvature="0" sodipodi:nodetypes="ccccccc" class="st1" d="M869.1,531.6h32.2V661h68.2
		v29.4H869.1L869.1,531.6z"/>
	<path id="path4157" inkscape:connector-curvature="0" sodipodi:nodetypes="ccscscsccccccccccc" class="st1" d="M1186.1,690.3
		l-3.2-13.2c-10.1,12.2-22,16.7-36.8,16.1c-13.4-0.6-27-7.5-37-20.1c-8.4-10.3-12.7-22.9-12.7-37.7c0-14.6,6.9-29.1,19-40.5
		c9.4-8.3,22.6-13.1,35.4-13c12.2,0.1,22.7,3.6,31.8,15.2l2.9-13.7h26.4v107H1186.1z M1155.6,608.5c-16.4,1.1-27.4,11.1-28.4,28.5
		c0,8.3,2.7,16.5,9.4,22.1c6,4.6,13.1,7,20,6.6c15.6-1.1,26-13.2,26.2-27.6C1183.1,621.8,1172.9,609.6,1155.6,608.5L1155.6,608.5z"
		/>
	<path id="path4161" inkscape:connector-curvature="0" sodipodi:nodetypes="ccscsccccscsssc" class="st1" d="M1351.9,583.5h30.2
		v51.6c0,7.1-0.7,15.9,4,22c4.8,5.8,10.9,8.3,16.2,8.5c8.4,0.3,13.2-2.3,16.8-5.2c7.3-5.6,8.1-16.4,8.1-24.6v-52.3h29.6v62.1
		c0,13.7-5.6,25.1-15.5,35c-9.6,8.5-22.7,13.3-39.1,12.6c-16.4-0.7-26.7-5.4-35.9-14c-7.7-7.1-14.5-19.5-14.5-36.1L1351.9,583.5z"/>
	<path id="path4145" inkscape:connector-curvature="0" sodipodi:nodetypes="scscscsss" class="st1" d="M1364.9,356.3
		c5.1,0,9.4,1.8,12.9,5.4c3.6,3.5,5.4,7.8,5.4,12.9s-1.8,9.4-5.4,13c-3.5,3.5-7.8,5.3-12.9,5.3s-9.4-1.8-13-5.3
		c-3.5-3.6-5.3-8-5.3-13s1.8-9.4,5.3-12.9C1355.5,358.1,1359.9,356.3,1364.9,356.3z"/>
	<path id="path4147" inkscape:connector-curvature="0" sodipodi:nodetypes="ccccccccc" class="st1" d="M1576.9,434.9
		c-18.7-5.2-34.1,4.4-35.4,22.4V514H1513V407.6h25l3.3,16.2c7.7-14.2,17.7-19.7,35.6-16.2L1576.9,434.9z"/>
	<path id="path4149" inkscape:connector-curvature="0" sodipodi:nodetypes="ccccccccccccsc" class="st1" d="M1499.6,469.7h-78.9
		c0,11.2,11.9,22.5,27,22.4c17-0.6,23.5-7,29.5-12.9l17,17.8c-6.7,6.4-19.5,18.4-44,20.1c-36.7-0.4-58.8-24.6-59.2-55.2
		c0.9-33.9,25.4-56.9,56.8-57.3c20.1,0.1,39.5,12.2,47.6,31.2C1500,446.5,1501,459.6,1499.6,469.7L1499.6,469.7z M1420.7,449.9h51.6
		c-2.3-10.3-11.9-20.9-25.8-20.6C1432.4,429.5,1422.2,439.4,1420.7,449.9z"/>
	<path id="path4180" inkscape:connector-curvature="0" sodipodi:nodetypes="cscccscsccccscccccccc" class="st1" d="M1243.8,701.2
		c10.6,9.3,18.8,12.8,25.3,13.9c20.8,3.4,43.2-4.4,38.4-34.2c-5.7,5.8-11,9-16.8,10.7c-25.7,5.1-43.6-4.1-55.3-18.5
		c-8.4-10.3-12.6-22.9-12.6-37.7c0-14.6,6.9-29.1,19-40.5c9.4-8.3,22.6-13.1,35.4-13c12.2,0.1,22.7,3.6,31.8,15.2l2.9-13.7h26.4
		v98.7c1.1,47.1-33.6,61.7-61.6,61.4c-17.3-0.2-35.1-7.2-49.1-19.3L1243.8,701.2z M1281.9,608.5c-16.4,1.1-27.4,11.1-28.4,28.5
		c0,8.3,2.7,16.5,9.4,22.1c6,4.6,13.1,7,20,6.6c15.6-1.1,26-13.2,26.2-27.6C1309.4,621.8,1299.2,609.6,1281.9,608.5L1281.9,608.5z"
		/>
	<path id="path4149-6" inkscape:connector-curvature="0" sodipodi:nodetypes="ccccccccccccsc" class="st1" d="M1576.4,646h-78.9
		c0,11.2,11.9,22.5,27,22.4c17-0.6,23.5-7,29.5-12.9l17,17.8c-6.7,6.4-19.5,18.4-44,20.1c-36.7-0.4-58.8-24.6-59.2-55.2
		c0.9-33.9,25.4-56.9,56.8-57.3c20.1,0.1,39.5,12.2,47.6,31.2C1576.9,622.8,1577.9,635.9,1576.4,646L1576.4,646z M1497.5,626.2h51.6
		c-2.3-10.3-11.9-20.9-25.8-20.6C1509.3,605.8,1499.1,615.7,1497.5,626.2z"/>
	<path id="path4197" inkscape:connector-curvature="0" sodipodi:nodetypes="ccccccccccccsc" class="st1" d="M1084.9,646h-78.9
		c0,11.2,11.9,22.5,27,22.4c17-0.6,23.5-7,29.5-12.9l17,17.8c-6.7,6.4-19.5,18.4-44,20.1c-36.7-0.4-58.8-24.6-59.2-55.2
		c0.9-33.9,25.4-56.9,56.8-57.3c20.1,0.1,39.5,12.2,47.6,31.2C1085.4,622.8,1086.4,635.9,1084.9,646L1084.9,646z M1006,626.2h51.6
		c-2.3-10.3-11.9-20.9-25.8-20.6C1017.8,605.8,1007.6,615.7,1006,626.2z"/>
</g>
</svg>
